{
    "asset" : {
        "generator" : "Khronos glTF Blender I/O v1.5.17",
        "version" : "2.0"
    },
    "scene" : 0,
    "scenes" : [
        {
            "name" : "Scene",
            "nodes" : [
                0,
                1,
                2
            ]
        }
    ],
    "nodes" : [
        {
            "name" : "Light",
            "rotation" : [
                0.16907575726509094,
                0.7558803558349609,
                -0.27217137813568115,
                0.570947527885437
            ],
            "scale" : [
                0.30000001192092896,
                0.30000001192092896,
                0.30000007152557373
            ],
            "translation" : [
                1.2228736877441406,
                1.7711586952209473,
                -0.3016362190246582
            ]
        },
        {
            "name" : "Camera",
            "rotation" : [
                0.483536034822464,
                0.33687159419059753,
                -0.20870360732078552,
                0.7804827094078064
            ],
            "scale" : [
                0.30000001192092896,
                0.30000001192092896,
                0.30000001192092896
            ],
            "translation" : [
                2.207667350769043,
                1.4874927997589111,
                2.077737331390381
            ]
        },
        {
            "mesh" : 0,
            "name" : "NK.65"
        }
    ],
    "materials" : [
        {
            "doubleSided" : true,
            "name" : "NovelKeys",
            "pbrMetallicRoughness" : {
                "baseColorFactor" : [
                    0.800000011920929,
                    0.800000011920929,
                    0.800000011920929,
                    1
                ],
                "metallicFactor" : 0,
                "roughnessFactor" : 0.5
            }
        },
        {
            "doubleSided" : true,
            "name" : "Lime",
            "pbrMetallicRoughness" : {
                "baseColorFactor" : [
                    0.2469327598810196,
                    0.8000000715255737,
                    0.2843855023384094,
                    1
                ],
                "metallicFactor" : 0,
                "roughnessFactor" : 0.5
            }
        },
        {
            "doubleSided" : true,
            "name" : "Grape",
            "pbrMetallicRoughness" : {
                "baseColorFactor" : [
                    0.42368191480636597,
                    0.19423796236515045,
                    0.5814641714096069,
                    1
                ],
                "metallicFactor" : 0,
                "roughnessFactor" : 0.5
            }
        },
        {
            "doubleSided" : true,
            "name" : "Blueberry",
            "pbrMetallicRoughness" : {
                "baseColorFactor" : [
                    0.1878494918346405,
                    0.5464528799057007,
                    0.8000000715255737,
                    1
                ],
                "metallicFactor" : 0,
                "roughnessFactor" : 0.5
            }
        },
        {
            "doubleSided" : true,
            "name" : "Lemon",
            "pbrMetallicRoughness" : {
                "baseColorFactor" : [
                    0.8000000715255737,
                    0.7646750211715698,
                    0.13765613734722137,
                    1
                ],
                "metallicFactor" : 0,
                "roughnessFactor" : 0.5
            }
        },
        {
            "doubleSided" : true,
            "name" : "Strawberry",
            "pbrMetallicRoughness" : {
                "baseColorFactor" : [
                    0.6151768565177917,
                    0.21455411612987518,
                    0.3122856318950653,
                    1
                ],
                "metallicFactor" : 0,
                "roughnessFactor" : 0.5
            }
        },
        {
            "doubleSided" : true,
            "name" : "Material",
            "pbrMetallicRoughness" : {
                "baseColorFactor" : [
                    0.22147083282470703,
                    0.574097752571106,
                    0.6266632080078125,
                    1
                ],
                "metallicFactor" : 0,
                "roughnessFactor" : 0.5
            }
        }
    ],
    "meshes" : [
        {
            "name" : "Cube.001",
            "primitives" : [
                {
                    "attributes" : {
                        "POSITION" : 0,
                        "NORMAL" : 1,
                        "TEXCOORD_0" : 2
                    },
                    "indices" : 3,
                    "material" : 0
                },
                {
                    "attributes" : {
                        "POSITION" : 4,
                        "NORMAL" : 5,
                        "TEXCOORD_0" : 6
                    },
                    "indices" : 7,
                    "material" : 1
                },
                {
                    "attributes" : {
                        "POSITION" : 8,
                        "NORMAL" : 9,
                        "TEXCOORD_0" : 10
                    },
                    "indices" : 11,
                    "material" : 2
                },
                {
                    "attributes" : {
                        "POSITION" : 12,
                        "NORMAL" : 13,
                        "TEXCOORD_0" : 14
                    },
                    "indices" : 15,
                    "material" : 3
                },
                {
                    "attributes" : {
                        "POSITION" : 16,
                        "NORMAL" : 17,
                        "TEXCOORD_0" : 18
                    },
                    "indices" : 7,
                    "material" : 4
                },
                {
                    "attributes" : {
                        "POSITION" : 19,
                        "NORMAL" : 20,
                        "TEXCOORD_0" : 21
                    },
                    "indices" : 22,
                    "material" : 5
                },
                {
                    "attributes" : {
                        "POSITION" : 23,
                        "NORMAL" : 24,
                        "TEXCOORD_0" : 25
                    },
                    "indices" : 26,
                    "material" : 6
                }
            ]
        }
    ],
    "accessors" : [
        {
            "bufferView" : 0,
            "componentType" : 5126,
            "count" : 4297,
            "max" : [
                0.15954376757144928,
                0.04316456615924835,
                0.05944777652621269
            ],
            "min" : [
                -0.15954375267028809,
                0.0025400007143616676,
                -0.05626125633716583
            ],
            "type" : "VEC3"
        },
        {
            "bufferView" : 1,
            "componentType" : 5126,
            "count" : 4297,
            "type" : "VEC3"
        },
        {
            "bufferView" : 2,
            "componentType" : 5126,
            "count" : 4297,
            "type" : "VEC2"
        },
        {
            "bufferView" : 3,
            "componentType" : 5123,
            "count" : 10332,
            "type" : "SCALAR"
        },
        {
            "bufferView" : 4,
            "componentType" : 5126,
            "count" : 144,
            "max" : [
                0.15160535275936127,
                0.038219135254621506,
                0.013406997546553612
            ],
            "min" : [
                0.09148372709751129,
                0.027620796114206314,
                -0.004224912263453007
            ],
            "type" : "VEC3"
        },
        {
            "bufferView" : 5,
            "componentType" : 5126,
            "count" : 144,
            "type" : "VEC3"
        },
        {
            "bufferView" : 6,
            "componentType" : 5126,
            "count" : 144,
            "type" : "VEC2"
        },
        {
            "bufferView" : 7,
            "componentType" : 5123,
            "count" : 360,
            "type" : "SCALAR"
        },
        {
            "bufferView" : 8,
            "componentType" : 5126,
            "count" : 140,
            "max" : [
                0.07704417407512665,
                0.03323342651128769,
                0.051479440182447433
            ],
            "min" : [
                -0.1265256255865097,
                0.022654665634036064,
                0.03384752944111824
            ],
            "type" : "VEC3"
        },
        {
            "bufferView" : 9,
            "componentType" : 5126,
            "count" : 140,
            "type" : "VEC3"
        },
        {
            "bufferView" : 10,
            "componentType" : 5126,
            "count" : 140,
            "type" : "VEC2"
        },
        {
            "bufferView" : 11,
            "componentType" : 5123,
            "count" : 318,
            "type" : "SCALAR"
        },
        {
            "bufferView" : 12,
            "componentType" : 5126,
            "count" : 212,
            "max" : [
                0.15160538256168365,
                0.03571641445159912,
                0.051479440182447433
            ],
            "min" : [
                -0.10159651190042496,
                0.022654663771390915,
                0.014811309985816479
            ],
            "type" : "VEC3"
        },
        {
            "bufferView" : 13,
            "componentType" : 5126,
            "count" : 212,
            "type" : "VEC3"
        },
        {
            "bufferView" : 14,
            "componentType" : 5126,
            "count" : 212,
            "type" : "VEC2"
        },
        {
            "bufferView" : 15,
            "componentType" : 5123,
            "count" : 498,
            "type" : "SCALAR"
        },
        {
            "bufferView" : 16,
            "componentType" : 5126,
            "count" : 144,
            "max" : [
                0.15160535275936127,
                0.04316472262144089,
                -0.005630469880998135
            ],
            "min" : [
                0.09643854200839996,
                0.030103780329227448,
                -0.04229240119457245
            ],
            "type" : "VEC3"
        },
        {
            "bufferView" : 17,
            "componentType" : 5126,
            "count" : 144,
            "type" : "VEC3"
        },
        {
            "bufferView" : 18,
            "componentType" : 5126,
            "count" : 144,
            "type" : "VEC2"
        },
        {
            "bufferView" : 19,
            "componentType" : 5126,
            "count" : 144,
            "max" : [
                0.1516062617301941,
                0.04316488653421402,
                -0.0246591754257679
            ],
            "min" : [
                -0.1516062319278717,
                0.03258579596877098,
                -0.04229364171624184
            ],
            "type" : "VEC3"
        },
        {
            "bufferView" : 20,
            "componentType" : 5126,
            "count" : 144,
            "type" : "VEC3"
        },
        {
            "bufferView" : 21,
            "componentType" : 5126,
            "count" : 144,
            "type" : "VEC2"
        },
        {
            "bufferView" : 22,
            "componentType" : 5123,
            "count" : 360,
            "type" : "SCALAR"
        },
        {
            "bufferView" : 23,
            "componentType" : 5126,
            "count" : 136,
            "max" : [
                0.13731874525547028,
                0.0025400035083293915,
                0.045243795961141586
            ],
            "min" : [
                -0.13731876015663147,
                -3.725290298461914e-09,
                -0.04524371773004532
            ],
            "type" : "VEC3"
        },
        {
            "bufferView" : 24,
            "componentType" : 5126,
            "count" : 136,
            "type" : "VEC3"
        },
        {
            "bufferView" : 25,
            "componentType" : 5126,
            "count" : 136,
            "type" : "VEC2"
        },
        {
            "bufferView" : 26,
            "componentType" : 5123,
            "count" : 204,
            "type" : "SCALAR"
        }
    ],
    "bufferViews" : [
        {
            "buffer" : 0,
            "byteLength" : 51564,
            "byteOffset" : 0
        },
        {
            "buffer" : 0,
            "byteLength" : 51564,
            "byteOffset" : 51564
        },
        {
            "buffer" : 0,
            "byteLength" : 34376,
            "byteOffset" : 103128
        },
        {
            "buffer" : 0,
            "byteLength" : 20664,
            "byteOffset" : 137504
        },
        {
            "buffer" : 0,
            "byteLength" : 1728,
            "byteOffset" : 158168
        },
        {
            "buffer" : 0,
            "byteLength" : 1728,
            "byteOffset" : 159896
        },
        {
            "buffer" : 0,
            "byteLength" : 1152,
            "byteOffset" : 161624
        },
        {
            "buffer" : 0,
            "byteLength" : 720,
            "byteOffset" : 162776
        },
        {
            "buffer" : 0,
            "byteLength" : 1680,
            "byteOffset" : 163496
        },
        {
            "buffer" : 0,
            "byteLength" : 1680,
            "byteOffset" : 165176
        },
        {
            "buffer" : 0,
            "byteLength" : 1120,
            "byteOffset" : 166856
        },
        {
            "buffer" : 0,
            "byteLength" : 636,
            "byteOffset" : 167976
        },
        {
            "buffer" : 0,
            "byteLength" : 2544,
            "byteOffset" : 168612
        },
        {
            "buffer" : 0,
            "byteLength" : 2544,
            "byteOffset" : 171156
        },
        {
            "buffer" : 0,
            "byteLength" : 1696,
            "byteOffset" : 173700
        },
        {
            "buffer" : 0,
            "byteLength" : 996,
            "byteOffset" : 175396
        },
        {
            "buffer" : 0,
            "byteLength" : 1728,
            "byteOffset" : 176392
        },
        {
            "buffer" : 0,
            "byteLength" : 1728,
            "byteOffset" : 178120
        },
        {
            "buffer" : 0,
            "byteLength" : 1152,
            "byteOffset" : 179848
        },
        {
            "buffer" : 0,
            "byteLength" : 1728,
            "byteOffset" : 181000
        },
        {
            "buffer" : 0,
            "byteLength" : 1728,
            "byteOffset" : 182728
        },
        {
            "buffer" : 0,
            "byteLength" : 1152,
            "byteOffset" : 184456
        },
        {
            "buffer" : 0,
            "byteLength" : 720,
            "byteOffset" : 185608
        },
        {
            "buffer" : 0,
            "byteLength" : 1632,
            "byteOffset" : 186328
        },
        {
            "buffer" : 0,
            "byteLength" : 1632,
            "byteOffset" : 187960
        },
        {
            "buffer" : 0,
            "byteLength" : 1088,
            "byteOffset" : 189592
        },
        {
            "buffer" : 0,
            "byteLength" : 408,
            "byteOffset" : 190680
        }
    ],
    "buffers" : [
        {
            "byteLength" : 191088,
            "uri" : "data:application/octet-stream;base64,"
        }
    ]
}
